<?xml version="1.0" encoding="utf-8"?>
<svg viewBox="113.9618 241.3226 510.9978 183.3519" xmlns="http://www.w3.org/2000/svg">
  <defs>
    <clipPath clipPathUnits="userSpaceOnUse" id="clipPath34">
      <path d="m 2730.53,2377.14 v -46.73 h 67.77 v -180.68 h 57.75 v 180.68 h 68.44 v 46.73 z" id="path32"/>
    </clipPath>
    <clipPath clipPathUnits="userSpaceOnUse" id="clipPath40">
      <path d="m 2730.53,2377.14 h 193.96 v -227.41 h -193.96 z" id="path38"/>
    </clipPath>
    <clipPath clipPathUnits="userSpaceOnUse" id="clipPath58">
      <path d="m 3107.54,2376.8 v -93.42 h -94.06 v 93.42 h -57.78 v -227.07 h 57.78 v 88.25 h 94.06 v -88.25 h 57.75 v 227.07 z" id="path56"/>
    </clipPath>
    <clipPath clipPathUnits="userSpaceOnUse" id="clipPath64">
      <path d="m 2955.7,2376.8 h 209.59 V 2149.73 H 2955.7 Z" id="path62"/>
    </clipPath>
    <clipPath clipPathUnits="userSpaceOnUse" id="clipPath82">
      <path d="m 3217.27,2376.8 h 57.71 v -227.07 h -57.71 z" id="path80"/>
    </clipPath>
    <clipPath clipPathUnits="userSpaceOnUse" id="clipPath100">
      <path d="m 3482.6,2376.8 v -140.1 l -104.75,140.1 h -50.92 v -227.07 h 54.18 v 139.83 l 104.44,-139.83 h 50.93 v 227.07 z" id="path98"/>
    </clipPath>
    <clipPath clipPathUnits="userSpaceOnUse" id="clipPath106">
      <path d="m 3326.93,2376.8 h 209.55 v -227.07 h -209.55 z" id="path104"/>
    </clipPath>
    <clipPath clipPathUnits="userSpaceOnUse" id="clipPath124">
      <path d="m 3733.16,2376.8 -86.93,-98.29 v 98.29 h -57.75 v -227.07 h 57.75 v 55.81 l 30.18,33.42 59.98,-89.23 h 69.12 l -89.88,133.02 84.33,94.05 z" id="path122"/>
    </clipPath>
    <clipPath clipPathUnits="userSpaceOnUse" id="clipPath130">
      <path d="m 3588.48,2376.8 h 217.03 v -227.07 h -217.03 z" id="path128"/>
    </clipPath>
    <clipPath clipPathUnits="userSpaceOnUse" id="clipPath148">
      <path d="m 3837.36,2376.8 h 57.76 v -227.07 h -57.76 z" id="path146"/>
    </clipPath>
    <clipPath clipPathUnits="userSpaceOnUse" id="clipPath166">
      <path d="m 4102.77,2376.8 v -140.1 l -104.8,140.1 h -50.9 v -227.07 h 54.16 v 139.83 l 104.47,-139.83 h 50.9 v 227.07 z" id="path164"/>
    </clipPath>
    <clipPath clipPathUnits="userSpaceOnUse" id="clipPath172">
      <path d="M 3947.07,2376.8 H 4156.6 V 2149.73 H 3947.07 Z" id="path170"/>
    </clipPath>
    <clipPath clipPathUnits="userSpaceOnUse" id="clipPath190">
      <path d="m 4193.67,2263.27 c 0,-66.15 52.25,-116.13 121.33,-116.13 31.78,0 70.04,12.34 94.39,29.51 v 88.59 h -49.96 v -58.74 c -13.63,-6.79 -28.55,-11.02 -40.21,-11.02 -37.66,0 -66.49,29.17 -66.49,67.79 0,37.96 28.52,67.14 65.86,67.14 21.06,0 44.11,-9.41 60.63,-24.64 l 32.44,39.26 c -23.36,20.76 -59.04,33.71 -92.79,33.71 -71.66,0 -125.2,-49.6 -125.2,-115.47" id="path188"/>
    </clipPath>
    <clipPath clipPathUnits="userSpaceOnUse" id="clipPath196">
      <path d="m 4193.67,2378.74 h 217.99 v -231.6 h -217.99 z" id="path194"/>
    </clipPath>
    <clipPath clipPathUnits="userSpaceOnUse" id="clipPath216">
      <path d="m 4655.47,2376.5 h -39.18 l 75.66,-110.54 -81.15,-116.23 h 19.79 19.14 19.78 l 81.27,116.38 -0.04,0.07 -75.51,110.32 z" id="path214"/>
    </clipPath>
    <clipPath clipPathUnits="userSpaceOnUse" id="clipPath222">
      <path d="m 4610.8,2376.5 h 139.98 V 2149.73 H 4610.8 Z" id="path220"/>
    </clipPath>
    <clipPath clipPathUnits="userSpaceOnUse" id="clipPath240">
      <path d="m 4745.2,3061.59 c -1.09,252.93 -207.1,458.42 -460.28,458.53 -0.07,0 -0.13,0 -0.19,0 -0.08,0 -0.25,0 -0.51,0 -0.9,0 -2.94,0 -6.04,0 -51.42,-0.04 -389.23,-0.34 -389.23,-0.34 V 3463.02 3331 3300.61 h 220.52 0.57 c 10.72,0 174.14,0.08 174.69,0.08 132.5,0 240.33,-107.46 241.05,-239.79 -0.72,-132.34 -108.55,-239.79 -241.05,-239.79 -0.57,0 -174.69,0.07 -175.26,0.07 v 88.94 321.23 h -220.52 v -55.37 -230.51 -35.35 -74.46 -0.02 -44.85 -132.02 -57.08 h 395.78 c 253.26,0 459.38,205.49 460.47,458.51 0,0.23 0.01,0.46 0.01,0.7 0,0.23 -0.01,0.46 -0.01,0.69 z" id="path238"/>
    </clipPath>
    <clipPath clipPathUnits="userSpaceOnUse" id="clipPath258">
      <path d="m 2601.23,3210.11 v 309.67 h -220.52 v -876.25 l 220.52,220.51 z" id="path256"/>
    </clipPath>
    <clipPath clipPathUnits="userSpaceOnUse" id="clipPath276">
      <path d="m 2656.11,2820.99 -220.52,-220.52 h 535.31 v 220.52 h -309.67 z" id="path274"/>
    </clipPath>
    <clipPath clipPathUnits="userSpaceOnUse" id="clipPath294">
      <path d="m 2880.59,3519.78 354.12,-569.84 21.75,-35.03 v -314.44 h 220.53 v 82.77 299.24 l -336.76,537.3 z" id="path292"/>
    </clipPath>
    <clipPath clipPathUnits="userSpaceOnUse" id="clipPath312">
      <path d="m 3436.5,3339.81 -48.69,-80.71 130.24,-208.21 289.92,468.89 h -259.63 z" id="path310"/>
    </clipPath>
    <clipPath clipPathUnits="userSpaceOnUse" id="clipPath330">
      <path d="m 1986.93,3493.68 c -35.62,12.23 -73.18,20.25 -112.11,23.4 v -220.95 c 41.95,-6.54 80.38,-23.85 112.27,-49.12 55.49,-43.96 91.38,-111.63 91.78,-187.66 -0.4,-76.03 -36.29,-143.72 -91.78,-187.66 -31.89,-25.28 -70.32,-42.59 -112.27,-49.13 v -220.93 c 38.92,3.14 76.48,11.15 112.09,23.38 111.25,38.19 203.37,117.8 257.84,220.39 33.94,63.94 53.36,136.72 53.57,213.95 -0.21,77.22 -19.63,149.99 -53.57,213.91 -54.47,102.62 -146.57,182.23 -257.82,220.42 z" id="path328"/>
    </clipPath>
  </defs>
  <g id="g10" transform="matrix(1.3333330154418945, 0, 0, -1.3333330154418945, -8.506986618041996, 710.941162109375)">
    <g id="g12" transform="scale(0.1)">
      <path d="m 944.453,2351.85 v -79.81 h 106.077 v -24.98 H 944.453 v -97.33 h -25.937 v 227.07 h 144.334 v -24.95 H 944.453" id="path14" style="fill:#83bd28;fill-opacity:1;fill-rule:nonzero;stroke:none"/>
      <path d="m 1112.56,2263.27 c 0,-49.94 42.17,-89.85 92.76,-89.85 50.62,0 92.14,39.91 92.14,89.85 0,49.96 -41.52,89.53 -92.14,89.53 -50.59,0 -92.76,-39.57 -92.76,-89.53 m 211.48,0 c 0,-63.91 -52.53,-114.84 -118.72,-114.84 -66.49,0 -119.03,50.93 -119.03,114.84 0,64.25 52.54,114.18 119.03,114.18 66.19,0 118.72,-50.25 118.72,-114.18" id="path16" style="fill:#83bd28;fill-opacity:1;fill-rule:nonzero;stroke:none"/>
      <path d="m 1464.28,2246.41 c 41.19,0 64.55,18.17 64.55,53.51 0,34.39 -23.36,51.93 -64.55,51.93 h -60.35 v -105.44 z m 15.25,-24.34 c -4.86,-0.31 -10.05,-0.63 -15.25,-0.63 h -60.35 v -71.71 h -25.92 v 227.07 h 86.27 c 56.77,0 89.53,-27.89 89.53,-76.23 0,-37.62 -18.15,-62.93 -50.92,-73.62 l 53.21,-77.22 h -29.53 l -47.04,72.34" id="path18" style="fill:#83bd28;fill-opacity:1;fill-rule:nonzero;stroke:none"/>
      <path d="m 1809.51,2149.73 -61.31,191.41 -61.95,-191.41 h -26.59 l -75.91,227.07 h 27.89 l 62.28,-196.89 61.64,196.57 25.94,0.32 62.29,-196.89 61.62,196.89 h 26.93 l -76.21,-227.07 h -26.62" id="path20" style="fill:#83bd28;fill-opacity:1;fill-rule:nonzero;stroke:none"/>
      <path d="m 2019.18,2347.31 -50.59,-115.19 h 101.84 z m -61.62,-140.15 -25.3,-57.43 h -27.59 l 101.87,227.07 h 26.94 l 101.54,-227.07 h -28.26 l -25.29,57.43 h -123.91" id="path22" style="fill:#83bd28;fill-opacity:1;fill-rule:nonzero;stroke:none"/>
      <path d="m 2263.54,2246.41 c 41.19,0 64.55,18.17 64.55,53.51 0,34.39 -23.36,51.93 -64.55,51.93 h -60.36 v -105.44 z m 15.22,-24.34 c -4.83,-0.31 -10.04,-0.63 -15.22,-0.63 h -60.36 v -71.71 h -25.95 v 227.07 h 86.31 c 56.75,0 89.51,-27.89 89.51,-76.23 0,-37.62 -18.17,-62.93 -50.92,-73.62 l 53.19,-77.22 h -29.5 l -47.06,72.34" id="path24" style="fill:#83bd28;fill-opacity:1;fill-rule:nonzero;stroke:none"/>
      <path d="m 2444.3,2174.39 h 66.17 c 50.58,0 90.16,37.96 90.16,88.56 0,50.92 -40.22,88.9 -91.13,88.9 h -65.2 z m 65.84,202.41 c 66.15,0 116.75,-48.97 116.75,-113.53 0,-64.56 -50.91,-113.54 -117.73,-113.54 h -90.8 v 227.07 h 91.78" id="path26" style="fill:#83bd28;fill-opacity:1;fill-rule:nonzero;stroke:none"/>
      <g id="g28">
        <g clip-path="url(#clipPath34)" id="g30">
          <g clip-path="url(#clipPath40)" id="g36">
            <path d="m 2798,2149 v 181 h -68 v 48 h 195 v -48 h -68 v -181" id="path50" style="fill-opacity: 1; fill-rule: nonzero; stroke: none; fill: rgb(254, 254, 254);"/>
          </g>
        </g>
      </g>
      <g id="g52">
        <g clip-path="url(#clipPath58)" id="g54">
          <g clip-path="url(#clipPath64)" id="g60">
            <path d="m 2955,2149 v 228 h 59 v -93 h 93 v 93 h 59 v -228 h -59 v 88 h -93 v -88" id="path74" style="fill-opacity: 1; fill-rule: nonzero; stroke: none; fill: rgb(254, 254, 254);"/>
          </g>
        </g>
      </g>
      <g id="g76">
        <g clip-path="url(#clipPath82)" id="g78">
          <path d="m 3217.27,2376.8 h 57.71 v -227.07 h -57.71 v 227.07" id="path92" style="fill-opacity: 1; fill-rule: nonzero; stroke: none; fill: rgb(254, 254, 254);"/>
        </g>
      </g>
      <g id="g94">
        <g clip-path="url(#clipPath100)" id="g96">
          <g clip-path="url(#clipPath106)" id="g102">
            <path d="m 3326,2149 v 228 h 53 v -1 h 1 v -2 h 1 v -1 h 1 v -1 h 1 v -2 h 1 v -1 h 1 v -1 h 1 v -2 h 1 v -1 h 1 v -1 h 1 v -2 h 1 v -1 h 1 v -1 h 1 v -2 h 1 v -1 h 1 v -1 h 1 v -2 h 1 v -1 h 1 v -1 h 1 v -2 h 1 v -1 h 1 v -1 h 1 v -2 h 1 v -1 h 1 v -1 h 1 v -2 h 1 v -1 h 1 v -1 h 1 v -2 h 1 v -1 h 1 v -1 h 1 v -2 h 1 v -1 h 1 v -1 h 1 v -2 h 1 v -1 h 1 v -1 h 1 v -2 h 1 v -1 h 1 v -1 h 1 v -2 h 1 v -1 h 1 v -1 h 1 v -2 h 1 v -1 h 1 v -1 h 1 v -2 h 1 v -1 h 1 v -1 h 1 v -2 h 1 v -1 h 1 v -1 h 1 v -2 h 1 v -1 h 1 v -1 h 1 v -2 h 1 v -1 h 1 v -1 h 1 v -2 h 1 v -1 h 1 v -1 h 1 v -2 h 1 v -1 h 1 v -1 h 1 v -2 h 1 v -1 h 1 v -2 h 1 v -1 h 1 v -1 h 1 v -2 h 1 v -1 h 1 v -1 h 1 v -2 h 1 v -1 h 1 v -1 h 1 v -2 h 1 v -1 h 1 v -1 h 1 v -2 h 1 v -1 h 1 v -1 h 1 v -2 h 1 v -1 h 1 v -1 h 1 v -2 h 1 v -1 h 1 v -1 h 1 v -2 h 1 v -1 h 1 v -1 h 1 v -2 h 1 v -1 h 1 v -1 h 1 v -2 h 1 v -1 h 1 v -1 h 1 v -2 h 1 v -1 h 1 v -1 h 1 v -2 h 1 v -1 h 1 v -1 h 1 v -2 h 1 v 138 h 55 v -228 h -52 v 1 h -1 v 1 h -1 v 2 h -1 v 1 h -1 v 1 h -1 v 2 h -1 v 1 h -1 v 1 h -1 v 2 h -1 v 1 h -1 v 1 h -1 v 2 h -1 v 1 h -1 v 1 h -1 v 2 h -1 v 1 h -1 v 1 h -1 v 2 h -1 v 1 h -1 v 1 h -1 v 2 h -1 v 1 h -1 v 1 h -1 v 2 h -1 v 1 h -1 v 1 h -1 v 2 h -1 v 1 h -1 v 1 h -1 v 2 h -1 v 1 h -1 v 1 h -1 v 2 h -1 v 1 h -1 v 1 h -1 v 2 h -1 v 1 h -1 v 2 h -1 v 1 h -1 v 1 h -1 v 2 h -1 v 1 h -1 v 1 h -1 v 2 h -1 v 1 h -1 v 1 h -1 v 2 h -1 v 1 h -1 v 1 h -1 v 2 h -1 v 1 h -1 v 1 h -1 v 2 h -1 v 1 h -1 v 1 h -1 v 2 h -1 v 1 h -1 v 1 h -1 v 2 h -1 v 1 h -1 v 1 h -1 v 2 h -1 v 1 h -1 v 1 h -1 v 2 h -1 v 1 h -1 v 1 h -1 v 2 h -1 v 1 h -1 v 1 h -1 v 2 h -1 v 1 h -1 v 1 h -1 v 2 h -1 v 1 h -1 v 1 h -1 v 2 h -1 v 1 h -1 v 1 h -1 v 2 h -1 v 1 h -1 v 1 h -1 v 2 h -1 v 1 h -1 v 1 h -1 v 2 h -1 v 1 h -1 v 1 h -1 v 2 h -1 v 1 h -1 v 1 h -1 v 2 h -1 v 1 h -1 v 1 h -1 v 2 h -1 v 1 h -1 v 2 h -1 v 1 h -1 v 1 h -1 v 2 h -1 v 1 h -1 v 1 h -1 v 2 h -1 v -138" id="path116" style="fill-opacity: 1; fill-rule: nonzero; stroke: none; fill: rgb(254, 254, 254);"/>
          </g>
        </g>
      </g>
      <g id="g118">
        <g clip-path="url(#clipPath124)" id="g120">
          <g clip-path="url(#clipPath130)" id="g126">
            <path d="m 3588,2149 v 228 h 59 v -96 h 1 v 1 h 1 v 1 h 1 v 1 h 1 v 2 h 1 v 1 h 1 v 1 h 1 v 1 h 1 v 1 h 1 v 1 h 1 v 1 h 1 v 1 h 1 v 2 h 1 v 1 h 1 v 1 h 1 v 1 h 1 v 1 h 1 v 1 h 1 v 1 h 1 v 1 h 1 v 2 h 1 v 1 h 1 v 1 h 1 v 1 h 1 v 1 h 1 v 1 h 1 v 1 h 1 v 2 h 1 v 1 h 1 v 1 h 1 v 1 h 1 v 1 h 1 v 1 h 1 v 1 h 1 v 1 h 1 v 2 h 1 v 1 h 1 v 1 h 1 v 1 h 1 v 1 h 1 v 1 h 1 v 1 h 1 v 1 h 1 v 2 h 1 v 1 h 1 v 1 h 1 v 1 h 1 v 1 h 1 v 1 h 1 v 1 h 1 v 2 h 1 v 1 h 1 v 1 h 1 v 1 h 1 v 1 h 1 v 1 h 1 v 1 h 1 v 1 h 1 v 2 h 1 v 1 h 1 v 1 h 1 v 1 h 1 v 1 h 1 v 1 h 1 v 1 h 1 v 2 h 1 v 1 h 1 v 1 h 1 v 1 h 1 v 1 h 1 v 1 h 1 v 1 h 1 v 1 h 1 v 2 h 1 v 1 h 1 v 1 h 1 v 1 h 1 v 1 h 1 v 1 h 1 v 1 h 1 v 1 h 1 v 2 h 1 v 1 h 1 v 1 h 1 v 1 h 1 v 1 h 68 v -2 h -1 v -1 h -1 v -1 h -1 v -1 h -1 v -1 h -1 v -1 h -1 v -1 h -1 v -2 h -1 v -1 h -1 v -1 h -1 v -1 h -1 v -1 h -1 v -1 h -1 v -1 h -1 v -1 h -1 v -1 h -1 v -2 h -1 v -1 h -1 v -1 h -1 v -1 h -1 v -1 h -1 v -1 h -1 v -1 h -1 v -1 h -1 v -2 h -1 v -1 h -1 v -1 h -1 v -1 h -1 v -1 h -1 v -1 h -1 v -1 h -1 v -1 h -1 v -1 h -1 v -2 h -1 v -1 h -1 v -1 h -1 v -1 h -1 v -1 h -1 v -1 h -1 v -1 h -1 v -1 h -1 v -1 h -1 v -2 h -1 v -1 h -1 v -1 h -1 v -1 h -1 v -1 h -1 v -1 h -1 v -1 h -1 v -1 h -1 v -2 h -1 v -1 h -1 v -1 h -1 v -1 h -1 v -1 h -1 v -1 h -1 v -1 h -1 v -1 h -1 v -1 h -1 v -2 h -1 v -1 h -1 v -1 h -1 v -1 h -1 v -1 h -1 v -1 h -1 v -1 h -1 v -1 h -1 v -1 h -1 v -2 h -1 v -1 h -1 v -1 h -1 v -1 h -1 v -1 h -1 v -1 h -1 v -1 h -1 v -1 h -1 v -2 h -1 v -1 h -1 v -1 h -1 v -1 h -1 v -1 h -1 v -1 h -1 v -1 h -1 v -3 h 1 v -1 h 1 v -2 h 1 v -1 h 1 v -2 h 1 v -1 h 1 v -2 h 1 v -1 h 1 v -2 h 1 v -1 h 1 v -2 h 1 v -1 h 1 v -2 h 1 v -1 h 1 v -1 h 1 v -2 h 1 v -1 h 1 v -2 h 1 v -1 h 1 v -2 h 1 v -1 h 1 v -2 h 1 v -1 h 1 v -2 h 1 v -1 h 1 v -2 h 1 v -1 h 1 v -2 h 1 v -1 h 1 v -2 h 1 v -1 h 1 v -2 h 1 v -1 h 1 v -2 h 1 v -1 h 1 v -2 h 1 v -1 h 1 v -2 h 1 v -1 h 1 v -1 h 1 v -2 h 1 v -1 h 1 v -2 h 1 v -1 h 1 v -2 h 1 v -1 h 1 v -2 h 1 v -1 h 1 v -2 h 1 v -1 h 1 v -2 h 1 v -1 h 1 v -2 h 1 v -1 h 1 v -2 h 1 v -1 h 1 v -2 h 1 v -1 h 1 v -2 h 1 v -1 h 1 v -2 h 1 v -1 h 1 v -2 h 1 v -1 h 1 v -1 h 1 v -2 h 1 v -1 h 1 v -2 h 1 v -1 h 1 v -2 h 1 v -1 h 1 v -2 h 1 v -1 h 1 v -2 h 1 v -1 h 1 v -2 h 1 v -1 h 1 v -2 h 1 v -1 h 1 v -2 h 1 v -1 h 1 v -2 h 1 v -1 h 1 v -2 h 1 v -1 h 1 v -2 h 1 v -1 h 1 v -2 h 1 v -1 h 1 v -2 h -70 v 1 h -1 v 1 h -1 v 2 h -1 v 1 h -1 v 2 h -1 v 1 h -1 v 2 h -1 v 1 h -1 v 2 h -1 v 1 h -1 v 2 h -1 v 1 h -1 v 2 h -1 v 1 h -1 v 2 h -1 v 1 h -1 v 2 h -1 v 1 h -1 v 2 h -1 v 1 h -1 v 2 h -1 v 1 h -1 v 2 h -1 v 1 h -1 v 2 h -1 v 1 h -1 v 2 h -1 v 1 h -1 v 1 h -1 v 2 h -1 v 1 h -1 v 2 h -1 v 1 h -1 v 2 h -1 v 1 h -1 v 2 h -1 v 1 h -1 v 2 h -1 v 1 h -1 v 2 h -1 v 1 h -1 v 2 h -1 v 1 h -1 v 2 h -1 v 1 h -1 v 2 h -1 v 1 h -1 v 2 h -1 v 1 h -1 v 2 h -1 v 1 h -1 v 2 h -1 v 1 h -1 v 2 h -1 v 1 h -1 v 2 h -1 v 1 h -1 v 2 h -1 v 1 h -1 v 2 h -1 v -1 h -1 v -1 h -1 v -1 h -1 v -1 h -1 v -2 h -1 v -1 h -1 v -1 h -1 v -1 h -1 v -1 h -1 v -1 h -1 v -1 h -1 v -1 h -1 v -1 h -1 v -1 h -1 v -2 h -1 v -1 h -1 v -1 h -1 v -1 h -1 v -1 h -1 v -1 h -1 v -1 h -1 v -1 h -1 v -1 h -1 v -2 h -1 v -1 h -1 v -1 h -1 v -1 h -1 v -1 h -1 v -1 h -1 v -57" id="path140" style="fill-opacity: 1; fill-rule: nonzero; stroke: none; fill: rgb(254, 254, 254);"/>
          </g>
        </g>
      </g>
      <g id="g142">
        <g clip-path="url(#clipPath148)" id="g144">
          <path d="m 3837.36,2376.8 h 57.76 v -227.07 h -57.76 v 227.07" id="path158" style="fill-opacity: 1; fill-rule: nonzero; stroke: none; fill: rgb(254, 254, 254);"/>
        </g>
      </g>
      <g id="g160">
        <g clip-path="url(#clipPath166)" id="g162">
          <g clip-path="url(#clipPath172)" id="g168">
            <path d="m 3947,2149 v 228 h 52 v -1 h 1 v -1 h 1 v -2 h 1 v -1 h 1 v -1 h 1 v -2 h 1 v -1 h 1 v -1 h 1 v -2 h 1 v -1 h 1 v -1 h 1 v -2 h 1 v -1 h 1 v -1 h 1 v -2 h 1 v -1 h 1 v -1 h 1 v -2 h 1 v -1 h 1 v -1 h 1 v -2 h 1 v -1 h 1 v -1 h 1 v -2 h 1 v -1 h 1 v -2 h 1 v -1 h 1 v -1 h 1 v -2 h 1 v -1 h 1 v -1 h 1 v -2 h 1 v -1 h 1 v -1 h 1 v -2 h 1 v -1 h 1 v -1 h 1 v -2 h 1 v -1 h 1 v -1 h 1 v -2 h 1 v -1 h 1 v -1 h 1 v -2 h 1 v -1 h 1 v -1 h 1 v -2 h 1 v -1 h 1 v -1 h 1 v -2 h 1 v -1 h 1 v -1 h 1 v -2 h 1 v -1 h 1 v -1 h 1 v -2 h 1 v -1 h 1 v -1 h 1 v -2 h 1 v -1 h 1 v -1 h 1 v -2 h 1 v -1 h 1 v -1 h 1 v -2 h 1 v -1 h 1 v -1 h 1 v -2 h 1 v -1 h 1 v -1 h 1 v -2 h 1 v -1 h 1 v -1 h 1 v -2 h 1 v -1 h 1 v -1 h 1 v -2 h 1 v -1 h 1 v -1 h 1 v -2 h 1 v -1 h 1 v -1 h 1 v -2 h 1 v -1 h 1 v -1 h 1 v -2 h 1 v -1 h 1 v -1 h 1 v -2 h 1 v -1 h 1 v -1 h 1 v -2 h 1 v -1 h 1 v -1 h 1 v -2 h 1 v -1 h 1 v -1 h 1 v -2 h 1 v -1 h 1 v -1 h 1 v -2 h 1 v -1 h 1 v -1 h 1 v 137 h 55 v -228 h -52 v 1 h -1 v 2 h -1 v 1 h -1 v 1 h -1 v 2 h -1 v 1 h -1 v 1 h -1 v 2 h -1 v 1 h -1 v 1 h -1 v 2 h -1 v 1 h -1 v 1 h -1 v 2 h -1 v 1 h -1 v 1 h -1 v 2 h -1 v 1 h -1 v 1 h -1 v 2 h -1 v 1 h -1 v 1 h -1 v 2 h -1 v 1 h -1 v 1 h -1 v 2 h -1 v 1 h -1 v 1 h -1 v 2 h -1 v 1 h -1 v 1 h -1 v 2 h -1 v 1 h -1 v 1 h -1 v 2 h -1 v 1 h -1 v 1 h -1 v 2 h -1 v 1 h -1 v 1 h -1 v 2 h -1 v 1 h -1 v 1 h -1 v 2 h -1 v 1 h -1 v 1 h -1 v 2 h -1 v 1 h -1 v 1 h -1 v 2 h -1 v 1 h -1 v 1 h -1 v 2 h -1 v 1 h -1 v 1 h -1 v 2 h -1 v 1 h -1 v 1 h -1 v 2 h -1 v 1 h -1 v 1 h -1 v 2 h -1 v 1 h -1 v 2 h -1 v 1 h -1 v 1 h -1 v 2 h -1 v 1 h -1 v 1 h -1 v 2 h -1 v 1 h -1 v 1 h -1 v 2 h -1 v 1 h -1 v 1 h -1 v 2 h -1 v 1 h -1 v 1 h -1 v 2 h -1 v 1 h -1 v 1 h -1 v 2 h -1 v 1 h -1 v 1 h -1 v 2 h -1 v 1 h -1 v 1 h -1 v 2 h -1 v 1 h -1 v 1 h -1 v 2 h -1 v 1 h -1 v 1 h -1 v 2 h -1 v 1 h -1 v 1 h -1 v 2 h -1 v 1 h -1 v 1 h -1 v 2 h -1 v 1 h -1 v 1 h -1 v 2 h -1 v -138" id="path182" style="fill-opacity: 1; fill-rule: nonzero; stroke: none; fill: rgb(254, 254, 254);"/>
          </g>
        </g>
      </g>
      <g id="g184">
        <g clip-path="url(#clipPath190)" id="g186">
          <g clip-path="url(#clipPath196)" id="g192">
            <path d="m 4300,2147 v 1 h -8 v 1 h -5 v 1 h -4 v 1 h -5 v 1 h -3 v 1 h -3 v 1 h -3 v 1 h -3 v 1 h -2 v 1 h -2 v 1 h -2 v 1 h -3 v 1 h -2 v 1 h -1 v 1 h -2 v 1 h -2 v 1 h -2 v 1 h -1 v 1 h -2 v 1 h -1 v 1 h -2 v 1 h -1 v 1 h -2 v 1 h -1 v 1 h -2 v 1 h -1 v 1 h -1 v 1 h -1 v 1 h -1 v 1 h -1 v 1 h -1 v 1 h -2 v 1 h -1 v 1 h -1 v 1 h -1 v 2 h -1 v 1 h -1 v 1 h -1 v 1 h -1 v 1 h -1 v 1 h -1 v 1 h -1 v 2 h -1 v 1 h -1 v 1 h -1 v 1 h -1 v 2 h -1 v 1 h -1 v 2 h -1 v 2 h -1 v 1 h -1 v 2 h -1 v 1 h -1 v 2 h -1 v 2 h -1 v 2 h -1 v 2 h -1 v 3 h -1 v 2 h -1 v 3 h -1 v 3 h -1 v 2 h -1 v 4 h -1 v 4 h -1 v 4 h -1 v 7 h -1 v 9 h -1 v 17 h 1 v 8 h 1 v 7 h 1 v 4 h 1 v 4 h 1 v 4 h 1 v 2 h 1 v 3 h 1 v 3 h 1 v 2 h 1 v 2 h 1 v 2 h 1 v 2 h 1 v 2 h 1 v 2 h 1 v 2 h 1 v 1 h 1 v 2 h 1 v 2 h 1 v 1 h 1 v 2 h 1 v 1 h 1 v 1 h 1 v 2 h 1 v 1 h 1 v 1 h 1 v 1 h 1 v 2 h 1 v 1 h 1 v 1 h 1 v 1 h 1 v 1 h 1 v 1 h 1 v 1 h 1 v 1 h 1 v 1 h 1 v 1 h 1 v 1 h 2 v 1 h 1 v 1 h 1 v 1 h 1 v 1 h 1 v 1 h 2 v 1 h 1 v 1 h 2 v 1 h 1 v 1 h 1 v 1 h 2 v 1 h 1 v 1 h 2 v 1 h 2 v 1 h 2 v 1 h 2 v 1 h 1 v 1 h 2 v 1 h 2 v 1 h 3 v 1 h 2 v 1 h 2 v 1 h 3 v 1 h 3 v 1 h 3 v 1 h 3 v 1 h 3 v 1 h 5 v 1 h 4 v 1 h 6 v 1 h 8 v 1 h 29 v -1 h 7 v -1 h 7 v -1 h 4 v -1 h 4 v -1 h 4 v -1 h 3 v -1 h 3 v -1 h 4 v -1 h 2 v -1 h 3 v -1 h 2 v -1 h 3 v -1 h 2 v -1 h 2 v -1 h 2 v -1 h 2 v -1 h 2 v -1 h 2 v -1 h 2 v -1 h 1 v -1 h 2 v -1 h 1 v -1 h 2 v -1 h 1 v -1 h 2 v -1 h 1 v -1 h 2 v -1 h 1 v -1 h 1 v -1 h 2 v -1 h 1 v -1 h 1 v -1 h 1 v -2 h -1 v -1 h -1 v -2 h -1 v -1 h -1 v -1 h -1 v -1 h -1 v -2 h -1 v -1 h -1 v -1 h -1 v -1 h -1 v -1 h -1 v -2 h -1 v -1 h -1 v -1 h -1 v -1 h -1 v -1 h -1 v -2 h -1 v -1 h -1 v -1 h -1 v -1 h -1 v -1 h -1 v -2 h -1 v -1 h -1 v -1 h -1 v -1 h -1 v -2 h -1 v -1 h -1 v -1 h -1 v -1 h -1 v -1 h -1 v -2 h -1 v -1 h -1 v -1 h -2 v 1 h -1 v 1 h -1 v 1 h -1 v 1 h -1 v 1 h -2 v 1 h -1 v 1 h -1 v 1 h -2 v 1 h -1 v 1 h -2 v 1 h -2 v 1 h -2 v 1 h -2 v 1 h -1 v 1 h -2 v 1 h -2 v 1 h -2 v 1 h -3 v 1 h -3 v 1 h -3 v 1 h -3 v 1 h -4 v 1 h -4 v 1 h -7 v 1 h -12 v -1 h -8 v -1 h -3 v -1 h -3 v -1 h -4 v -1 h -2 v -1 h -2 v -1 h -2 v -1 h -2 v -1 h -2 v -1 h -2 v -1 h -1 v -1 h -2 v -1 h -1 v -1 h -1 v -1 h -1 v -1 h -1 v -1 h -2 v -1 h -1 v -1 h -1 v -1 h -1 v -1 h -1 v -2 h -1 v -1 h -1 v -1 h -1 v -1 h -1 v -2 h -1 v -1 h -1 v -2 h -1 v -2 h -1 v -2 h -1 v -1 h -1 v -2 h -1 v -2 h -1 v -3 h -1 v -4 h -1 v -3 h -1 v -4 h -1 v -8 h -1 v -10 h 1 v -8 h 1 v -4 h 1 v -3 h 1 v -3 h 1 v -3 h 1 v -2 h 1 v -2 h 1 v -2 h 1 v -2 h 1 v -2 h 1 v -2 h 1 v -1 h 1 v -1 h 1 v -2 h 1 v -1 h 1 v -1 h 1 v -1 h 1 v -2 h 1 v -1 h 1 v -1 h 2 v -1 h 1 v -1 h 1 v -1 h 1 v -1 h 1 v -1 h 2 v -1 h 1 v -1 h 2 v -1 h 1 v -1 h 2 v -1 h 2 v -1 h 2 v -1 h 2 v -1 h 3 v -1 h 3 v -1 h 3 v -1 h 3 v -1 h 7 v -1 h 14 v 1 h 5 v 1 h 5 v 1 h 4 v 1 h 3 v 1 h 3 v 1 h 3 v 1 h 2 v 1 h 2 v 1 h 3 v 1 h 2 v 1 h 1 v 59 h 51 v -90 h -1 v -1 h -1 v -1 h -2 v -1 h -2 v -1 h -1 v -1 h -2 v -1 h -2 v -1 h -2 v -1 h -2 v -1 h -1 v -1 h -2 v -1 h -2 v -1 h -3 v -1 h -2 v -1 h -2 v -1 h -2 v -1 h -3 v -1 h -2 v -1 h -3 v -1 h -3 v -1 h -3 v -1 h -3 v -1 h -4 v -1 h -3 v -1 h -4 v -1 h -5 v -1 h -5 v -1 h -5 v -1 h -8 v -1" id="path206" style="fill-opacity: 1; fill-rule: nonzero; stroke: none; fill: rgb(254, 254, 254);"/>
          </g>
        </g>
      </g>
      <path d="m 4633.09,2266.18 -75.49,110.32 h -58.95 l 75.67,-110.54 -81.18,-116.23 h 19.77 19.16 19.79 l 81.27,116.38 -0.04,0.07" id="path208" style="fill:#abd560;fill-opacity:1;fill-rule:nonzero;stroke:none"/>
      <g id="g210">
        <g clip-path="url(#clipPath216)" id="g212">
          <g clip-path="url(#clipPath222)" id="g218">
            <path d="m 4610,2149 v 2 h 1 v 1 h 1 v 1 h 1 v 2 h 1 v 1 h 1 v 2 h 1 v 1 h 1 v 2 h 1 v 1 h 1 v 1 h 1 v 2 h 1 v 1 h 1 v 2 h 1 v 1 h 1 v 2 h 1 v 1 h 1 v 1 h 1 v 2 h 1 v 1 h 1 v 2 h 1 v 1 h 1 v 2 h 1 v 1 h 1 v 1 h 1 v 2 h 1 v 1 h 1 v 2 h 1 v 1 h 1 v 2 h 1 v 1 h 1 v 1 h 1 v 2 h 1 v 1 h 1 v 2 h 1 v 1 h 1 v 2 h 1 v 1 h 1 v 2 h 1 v 1 h 1 v 1 h 1 v 2 h 1 v 1 h 1 v 2 h 1 v 1 h 1 v 2 h 1 v 1 h 1 v 1 h 1 v 2 h 1 v 1 h 1 v 2 h 1 v 1 h 1 v 2 h 1 v 1 h 1 v 1 h 1 v 2 h 1 v 1 h 1 v 2 h 1 v 1 h 1 v 2 h 1 v 1 h 1 v 1 h 1 v 2 h 1 v 1 h 1 v 2 h 1 v 1 h 1 v 2 h 1 v 1 h 1 v 1 h 1 v 2 h 1 v 1 h 1 v 2 h 1 v 1 h 1 v 2 h 1 v 1 h 1 v 2 h 1 v 1 h 1 v 1 h 1 v 2 h 1 v 1 h 1 v 2 h 1 v 1 h 1 v 2 h -1 v 1 h -1 v 2 h -1 v 1 h -1 v 2 h -1 v 1 h -1 v 2 h -1 v 1 h -1 v 2 h -1 v 1 h -1 v 1 h -1 v 2 h -1 v 1 h -1 v 2 h -1 v 1 h -1 v 2 h -1 v 1 h -1 v 2 h -1 v 1 h -1 v 2 h -1 v 1 h -1 v 2 h -1 v 1 h -1 v 1 h -1 v 2 h -1 v 1 h -1 v 2 h -1 v 1 h -1 v 2 h -1 v 1 h -1 v 2 h -1 v 1 h -1 v 2 h -1 v 1 h -1 v 2 h -1 v 1 h -1 v 1 h -1 v 2 h -1 v 1 h -1 v 2 h -1 v 1 h -1 v 2 h -1 v 1 h -1 v 2 h -1 v 1 h -1 v 2 h -1 v 1 h -1 v 2 h -1 v 1 h -1 v 1 h -1 v 2 h -1 v 1 h -1 v 2 h -1 v 1 h -1 v 2 h -1 v 1 h -1 v 2 h -1 v 1 h -1 v 2 h -1 v 1 h -1 v 2 h -1 v 1 h -1 v 1 h -1 v 2 h -1 v 1 h -1 v 2 h -1 v 1 h -1 v 2 h -1 v 1 h -1 v 2 h -1 v 1 h -1 v 2 h -1 v 1 h -1 v 2 h -1 v 1 h -1 v 2 h 60 v -1 h 1 v -2 h 1 v -1 h 1 v -2 h 1 v -1 h 1 v -1 h 1 v -2 h 1 v -1 h 1 v -2 h 1 v -1 h 1 v -2 h 1 v -1 h 1 v -2 h 1 v -1 h 1 v -2 h 1 v -1 h 1 v -1 h 1 v -2 h 1 v -1 h 1 v -2 h 1 v -1 h 1 v -2 h 1 v -1 h 1 v -2 h 1 v -1 h 1 v -2 h 1 v -1 h 1 v -2 h 1 v -1 h 1 v -1 h 1 v -2 h 1 v -1 h 1 v -2 h 1 v -1 h 1 v -2 h 1 v -1 h 1 v -2 h 1 v -1 h 1 v -2 h 1 v -1 h 1 v -2 h 1 v -1 h 1 v -1 h 1 v -2 h 1 v -1 h 1 v -2 h 1 v -1 h 1 v -2 h 1 v -1 h 1 v -2 h 1 v -1 h 1 v -2 h 1 v -1 h 1 v -2 h 1 v -1 h 1 v -1 h 1 v -2 h 1 v -1 h 1 v -2 h 1 v -1 h 1 v -2 h 1 v -1 h 1 v -2 h 1 v -1 h 1 v -2 h 1 v -1 h 1 v -2 h 1 v -1 h 1 v -1 h 1 v -2 h 1 v -1 h 1 v -2 h 1 v -1 h 1 v -2 h 1 v -1 h 1 v -4 h -1 v -1 h -1 v -1 h -1 v -2 h -1 v -1 h -1 v -2 h -1 v -1 h -1 v -2 h -1 v -1 h -1 v -1 h -1 v -2 h -1 v -1 h -1 v -2 h -1 v -1 h -1 v -2 h -1 v -1 h -1 v -1 h -1 v -2 h -1 v -1 h -1 v -2 h -1 v -1 h -1 v -2 h -1 v -1 h -1 v -1 h -1 v -2 h -1 v -1 h -1 v -2 h -1 v -1 h -1 v -2 h -1 v -1 h -1 v -1 h -1 v -2 h -1 v -1 h -1 v -2 h -1 v -1 h -1 v -2 h -1 v -1 h -1 v -1 h -1 v -2 h -1 v -1 h -1 v -2 h -1 v -1 h -1 v -2 h -1 v -1 h -1 v -2 h -1 v -1 h -1 v -1 h -1 v -2 h -1 v -1 h -1 v -2 h -1 v -1 h -1 v -2 h -1 v -1 h -1 v -1 h -1 v -2 h -1 v -1 h -1 v -2 h -1 v -1 h -1 v -2 h -1 v -1 h -1 v -1 h -1 v -2 h -1 v -1 h -1 v -2 h -1 v -1 h -1 v -2 h -1 v -1 h -1 v -1 h -1 v -2 h -1 v -1 h -1 v -2 h -1 v -1 h -1 v -2 h -1 v -1 h -1 v -1 h -1 v -2 h -1 v -1 h -1 v -2 h -1 v -1 h -1 v -2 h -1 v -1 h -1 v -1" id="path232" style="fill-opacity: 1; fill-rule: nonzero; stroke: none; fill: rgb(254, 254, 254);"/>
          </g>
        </g>
      </g>
      <g id="g234">
        <g clip-path="url(#clipPath240)" id="g236">
          <path d="m 4745.2,3061.59 c -1.09,252.93 -207.1,458.42 -460.28,458.53 -0.07,0 -0.13,0 -0.19,0 -0.08,0 -0.25,0 -0.51,0 -0.9,0 -2.94,0 -6.04,0 -51.42,-0.04 -389.23,-0.34 -389.23,-0.34 V 3463.02 3331 3300.61 h 220.52 0.57 c 10.72,0 174.14,0.08 174.69,0.08 132.5,0 240.33,-107.46 241.05,-239.79 -0.72,-132.34 -108.55,-239.79 -241.05,-239.79 -0.57,0 -174.69,0.07 -175.26,0.07 v 88.94 321.23 h -220.52 v -55.37 -230.51 -35.35 -74.46 -0.02 -44.85 -132.02 -57.08 h 395.78 c 253.26,0 459.38,205.49 460.47,458.51 0,0.23 0.01,0.46 0.01,0.7 0,0.23 -0.01,0.46 -0.01,0.69" id="path250" style="fill-opacity: 1; fill-rule: nonzero; stroke: none; fill: rgb(254, 254, 254);"/>
        </g>
      </g>
      <g id="g252">
        <g clip-path="url(#clipPath258)" id="g254">
          <path d="m 2601.23,3210.11 v 309.67 h -220.52 v -876.25 l 220.52,220.51 v 346.07" id="path268" style="fill-opacity: 1; fill-rule: nonzero; stroke: none; fill: rgb(254, 254, 254);"/>
        </g>
      </g>
      <g id="g270">
        <g clip-path="url(#clipPath276)" id="g272">
          <path d="m 2656.11,2820.99 -220.52,-220.52 h 535.31 v 220.52 h -309.67 -5.12" id="path286" style="fill-opacity: 1; fill-rule: nonzero; stroke: none; fill: rgb(254, 254, 254);"/>
        </g>
      </g>
      <g id="g288">
        <g clip-path="url(#clipPath294)" id="g290">
          <path d="m 2880.59,3519.78 354.12,-569.84 21.75,-35.03 v -314.44 h 220.53 v 82.77 299.24 l -336.76,537.3 h -259.64" id="path304" style="fill-opacity: 1; fill-rule: nonzero; stroke: none; fill: rgb(254, 254, 254);"/>
        </g>
      </g>
      <g id="g306">
        <g clip-path="url(#clipPath312)" id="g308">
          <path d="m 3436.5,3339.81 -48.69,-80.71 130.24,-208.21 289.92,468.89 H 3548.34 L 3436.5,3339.81" id="path322" style="fill-opacity: 1; fill-rule: nonzero; stroke: none; fill: rgb(254, 254, 254);"/>
        </g>
      </g>
      <g id="g324">
        <g clip-path="url(#clipPath330)" id="g326">
          <path d="m 1986.93,3493.68 c -35.62,12.23 -73.18,20.25 -112.11,23.4 v -220.95 c 41.95,-6.54 80.38,-23.85 112.27,-49.12 55.49,-43.96 91.38,-111.63 91.78,-187.66 -0.4,-76.03 -36.29,-143.72 -91.78,-187.66 -31.89,-25.28 -70.32,-42.59 -112.27,-49.13 v -220.93 c 38.92,3.14 76.48,11.15 112.09,23.38 111.25,38.19 203.37,117.8 257.84,220.39 33.94,63.94 53.36,136.72 53.57,213.95 -0.21,77.22 -19.63,149.99 -53.57,213.91 -54.47,102.62 -146.57,182.23 -257.82,220.42" id="path340" style="fill-opacity: 1; fill-rule: nonzero; stroke: none; fill: rgb(254, 254, 254);"/>
        </g>
      </g>
      <path d="m 1569.49,2993.49 c -2.38,1.72 -4.9,3.86 -7.67,6.89 l 0.06,0.07 c -18.48,19.99 -36.96,40.02 -55.2,59.79 v 0 c -23.66,25.65 -46.85,50.8 -69.15,75 -28.33,30.73 -55.19,59.89 -79.36,86.14 -108.41,117.39 -217.43,235.82 -277.27,300.76 L 919.496,3373.46 c 3.578,-3.89 22.129,-24.08 50.66,-55.09 2.594,-2.82 5.27,-5.74 8.028,-8.73 55.106,-59.9 141.706,-153.96 229.746,-249.24 v 0 h 0.01 l -0.01,-0.01 v 0.01 c -78.43,-84.26 -155.72,-167.56 -210.785,-226.97 -44.133,-47.62 -73.997,-79.91 -78.622,-84.93 L 1079.9,2599.81 c 33.4,36.22 82.13,88.9 137.54,148.65 l -0.03,0.04 c 6.54,7.1 63.55,68.71 140.13,151.23 v 0 c 4.28,-4.6 8.56,-9.18 12.83,-13.76 0.11,-0.12 0.22,-0.23 0.31,-0.34 2.08,-2.23 4.14,-4.44 6.21,-6.65 62.06,-66.52 119.99,-128.44 131,-139.63 2.83,-2.88 5.39,-5.47 7.42,-7.45 78.89,-77.42 180.97,-123.02 290.25,-130.55 v 220.39 c -51.36,6.85 -98.98,29.95 -136.57,66.8 -13.36,13.11 -50.12,52.05 -99.5,104.95" id="path342" style="fill:#83bd28;fill-opacity:1;fill-rule:nonzero;stroke:none"/>
      <path d="m 1515.31,3386.82 c -1.58,-1.53 -3.59,-3.58 -5.64,-5.65 -18.72,-18.89 -56.97,-59.16 -105.64,-110.91 37.76,-40.94 93.7,-101.57 149.15,-161.67 47.51,50.58 85.33,90.51 105.43,111.1 4.28,4.35 7.8,7.93 10.38,10.46 12.65,12.39 26.52,23.07 41.17,32.27 28.94,18.14 61.33,29.91 95.4,34.51 v 220.44 c -109.28,-7.55 -211.36,-53.15 -290.25,-130.55" id="path344" style="fill:#83bd28;fill-opacity:1;fill-rule:nonzero;stroke:none"/>
    </g>
  </g>
</svg>